HIERARCHY
ROOT Hips
{
	OFFSET 0.000000 0.000000 0.000000
	CHANNELS 6 Xposition Yposition Zposition Xrotation Yrotation Zrotation
	JOINT LeftUpLeg_virtual
	{
		OFFSET 0.000000 0.000000 0.000000
		CHANNELS 3 Xrotation Yrotation Zrotation
		JOINT LeftUpLeg
		{
			OFFSET 13.026900 -6.336304 -1.092800
			CHANNELS 3 Xrotation Yrotation Zrotation
			JOINT LeftLeg
			{
				OFFSET 0.524474 -46.096886 9.782700
				CHANNELS 3 Xrotation Yrotation Zrotation
				JOINT LeftFoot
				{
					OFFSET -0.524474 -53.427422 -12.948200
					CHANNELS 3 Xrotation Yrotation Zrotation
					JOINT LeftToeBase
					{
						OFFSET 0.192200 -14.009700 16.364100
						CHANNELS 3 Xrotation Yrotation Zrotation
						JOINT LeftToe_End
						{
							OFFSET -1.784700 -0.561700 9.474800
							CHANNELS 3 Xrotation Yrotation Zrotation
							End Site
							{
								OFFSET 0 0 0
							}
						}
					}
				}
			}
		}
	}
	JOINT RightUpLeg_virtual
	{
		OFFSET 0.000000 0.000000 0.000000
		CHANNELS 3 Xrotation Yrotation Zrotation
		JOINT RightUpLeg
		{
			OFFSET -12.883000 -6.336304 -1.092800
			CHANNELS 3 Xrotation Yrotation Zrotation
			JOINT RightLeg
			{
				OFFSET -0.524587 -46.096825 9.782800
				CHANNELS 3 Xrotation Yrotation Zrotation
				JOINT RightFoot
				{
					OFFSET 0.524587 -53.427383 -12.948300
					CHANNELS 3 Xrotation Yrotation Zrotation
					JOINT RightToeBase
					{
						OFFSET -0.192200 -14.009700 16.364100
						CHANNELS 3 Xrotation Yrotation Zrotation
						JOINT RightToe_End
						{
							OFFSET 1.784700 -0.561700 9.474800
							CHANNELS 3 Xrotation Yrotation Zrotation
							End Site
							{
								OFFSET 0 0 0
							}
						}
					}
				}
			}
		}
	}
	JOINT Spine_virtual
	{
		OFFSET 0.000000 0.000000 0.000000
		CHANNELS 3 Xrotation Yrotation Zrotation
		JOINT Spine
		{
			OFFSET 0.072000 7.257294 -0.789700
			CHANNELS 3 Xrotation Yrotation Zrotation
			JOINT Spine1
			{
				OFFSET 0.000000 12.508769 -0.658067
				CHANNELS 3 Xrotation Yrotation Zrotation
				JOINT Spine1_split
				{
					OFFSET 0.000000 12.508769 -0.658067
					CHANNELS 3 Xrotation Yrotation Zrotation
					JOINT Spine2
					{
						OFFSET 0.000000 12.508769 -0.658067
						CHANNELS 3 Xrotation Yrotation Zrotation
						JOINT Neck_virtual
						{
							OFFSET 0.000000 0.000000 0.000000
							CHANNELS 3 Xrotation Yrotation Zrotation
							JOINT Neck
							{
								OFFSET 0.000000 14.033295 7.520400
								CHANNELS 3 Xrotation Yrotation Zrotation
								JOINT Head
								{
									OFFSET 0.000000 8.198502 5.703100
									CHANNELS 3 Xrotation Yrotation Zrotation
									JOINT HeadTop_End
									{
										OFFSET 0.000000 17.760803 13.332701
										CHANNELS 3 Xrotation Yrotation Zrotation
										End Site
										{
											OFFSET 0 0 0
										}
									}
								}
							}
						}
						JOINT LeftShoulder_virtual
						{
							OFFSET 0.000000 0.000000 0.000000
							CHANNELS 3 Xrotation Yrotation Zrotation
							JOINT LeftShoulder
							{
								OFFSET 6.292450 5.785301 -0.669000
								CHANNELS 3 Xrotation Yrotation Zrotation
								JOINT LeftShoulder_split
								{
									OFFSET 6.292450 5.785301 -0.669000
									CHANNELS 3 Xrotation Yrotation Zrotation
									JOINT LeftArm
									{
										OFFSET 13.907140 -6.093903 1.965100
										CHANNELS 3 Xrotation Yrotation Zrotation
										JOINT LeftForeArm
										{
											OFFSET 34.140198 0.000000 0.000000
											CHANNELS 3 Xrotation Yrotation Zrotation
											JOINT LeftHand
											{
												OFFSET 40.960209 0.000000 0.000000
												CHANNELS 3 Xrotation Yrotation Zrotation
												End Site
												{
													OFFSET 0 0 0
												}
											}
										}
									}
								}
							}
						}
						JOINT RightShoulder_virtual
						{
							OFFSET 0.000000 0.000000 0.000000
							CHANNELS 3 Xrotation Yrotation Zrotation
							JOINT RightShoulder
							{
								OFFSET -6.292450 5.785301 -0.669000
								CHANNELS 3 Xrotation Yrotation Zrotation
								JOINT RightShoulder_split
								{
									OFFSET -6.292450 5.785301 -0.669000
									CHANNELS 3 Xrotation Yrotation Zrotation
									JOINT RightArm
									{
										OFFSET -13.907140 -6.093903 1.965100
										CHANNELS 3 Xrotation Yrotation Zrotation
										JOINT RightForeArm
										{
											OFFSET -34.140198 0.000000 0.000000
											CHANNELS 3 Xrotation Yrotation Zrotation
											JOINT RightHand
											{
												OFFSET -40.960209 0.000000 0.000000
												CHANNELS 3 Xrotation Yrotation Zrotation
												End Site
												{
													OFFSET 0 0 0
												}
											}
										}
									}
								}
							}
						}
					}
				}
			}
		}
	}
}
MOTION
Frames: 7
Frame Time: 0.03333333
0.890091 93.605423 3.997513 0.000000 0.000000 0.000000 -4.769101 -35.553296 -0.134057 -34.646059 10.042406 17.475421 51.620234 -0.133621 2.746291 -18.284683 -6.560850 -12.287168 -1.125065 0.515175 0.366926 0.000000 0.000000 0.000000 -6.613304 -35.600640 0.420991 -22.120777 -9.750684 -31.933962 48.943947 -3.339733 -10.026229 -13.487927 -2.088186 30.187326 -3.797455 0.388185 -0.567628 0.000000 0.000000 0.000000 -2.491807 -39.348621 0.476927 12.136311 8.380450 -2.290051 1.539283 2.031901 -1.620402 1.757505 -3.886844 -0.634339 0.000000 0.000000 0.000000 0.642732 1.982285 -0.680192 -2.056455 8.763286 4.448258 9.692385 7.920459 -6.266634 0.000000 0.000000 0.000000 1.385792 1.425544 -1.991529 1.416974 -0.212306 -1.786003 -8.274078 0.899360 -5.547657 -45.715132 -5.879367 -48.850053 -168.573864 -76.764086 -165.627047 0.000000 0.000000 0.000000 1.799350 2.876880 0.352137 6.751648 10.700950 -10.664067 5.942494 14.392802 3.560669 -49.309755 31.270160 86.700434 176.807943 66.280292 -179.921786 0.000000 0.000000 0.000000 
1.121832 93.750198 3.000256 0.000000 0.000000 0.000000 -5.478995 -36.139467 0.455452 -33.556163 10.243502 16.326633 52.098286 -0.126013 2.646254 -17.839225 -5.922205 -11.664241 -1.405877 0.503981 0.276972 0.000000 0.000000 0.000000 -7.473252 -36.292425 0.731586 -22.773756 -9.685138 -32.748571 50.981611 -3.967354 -9.696062 -13.835552 -2.911948 28.455656 -1.570919 0.348928 -0.505214 0.000000 0.000000 0.000000 -4.431031 -40.976180 0.512306 10.840054 8.693389 -1.805520 1.427487 2.535945 -1.751299 0.076394 -2.614998 -0.446527 0.000000 0.000000 0.000000 1.082053 2.486712 -1.026288 -0.587957 8.281119 4.691634 8.371012 9.481277 -7.129179 0.000000 0.000000 0.000000 1.984026 2.000774 -1.872843 1.313923 0.097135 -1.868528 -5.973040 -0.022090 -7.458748 -44.298558 -6.517713 -52.557479 -169.049764 -79.268443 -166.327961 0.000000 0.000000 0.000000 2.292199 3.118337 -0.195633 6.602361 11.111639 -8.057066 3.983736 12.537673 3.367209 -47.682975 28.633417 81.774494 178.869499 66.788288 178.918718 0.000000 0.000000 0.000000 
1.369933 94.185715 2.069427 0.000000 0.000000 0.000000 -6.719805 -37.449497 1.639733 -31.067580 11.015594 14.240149 51.476923 -0.458456 2.356052 -17.716947 -5.777618 -12.115965 -1.438009 0.434058 0.271369 0.000000 0.000000 0.000000 -8.519429 -37.482654 1.798176 -22.937269 -7.701441 -33.796620 53.226452 -4.925478 -9.463763 -13.805190 -4.278785 27.076297 -1.639223 0.309290 -0.268287 0.000000 0.000000 0.000000 -6.925922 -42.390954 0.860518 9.164107 9.526970 -0.829563 1.645606 3.763424 -1.908201 -0.291139 -0.638571 0.176085 0.000000 0.000000 0.000000 1.715061 3.626958 -1.428103 1.055120 7.233915 4.050081 6.020691 11.064519 -9.475795 0.000000 0.000000 0.000000 2.636892 3.328767 -1.758446 0.996576 -0.108756 -2.490939 -4.631089 -2.413578 -7.948003 -40.134666 -8.941386 -58.716001 -169.074858 -83.282416 -166.748495 0.000000 0.000000 0.000000 3.221351 4.073627 -0.970797 6.391402 11.912561 -4.217252 3.365186 10.837060 3.389743 -46.637478 24.779226 73.755586 -179.355126 66.965456 178.016300 0.000000 0.000000 0.000000 
1.630467 94.854416 1.595638 0.000000 0.000000 0.000000 -7.973867 -40.131856 3.129267 -27.712973 12.037457 11.783591 49.861870 -0.847967 1.822671 -17.860934 -5.648073 -13.589601 -1.295771 0.329789 0.314650 0.000000 0.000000 0.000000 -9.358218 -39.715228 3.416939 -22.824844 -4.212967 -34.772261 54.736989 -5.935974 -9.354360 -13.574753 -5.757487 25.715345 -2.963058 0.239555 0.143204 0.000000 0.000000 0.000000 -9.418019 -44.412424 1.421045 7.724515 10.368396 0.676589 2.355210 5.240933 -1.920146 0.802540 0.834347 0.923186 0.000000 0.000000 0.000000 2.673088 4.976869 -1.572655 2.376019 5.990773 2.988059 2.706676 12.637620 -12.544722 0.000000 0.000000 0.000000 3.460444 4.894420 -1.479531 0.451670 -0.690148 -3.083549 -3.784688 -3.482989 -7.561195 -34.254761 -12.299150 -65.051548 -158.313444 -88.191273 -156.339233 0.000000 0.000000 0.000000 4.561789 5.263527 -1.668913 6.125964 13.161624 -0.050234 3.375305 9.661671 3.878183 -47.484332 23.190401 65.597553 -178.976037 67.956783 178.338056 0.000000 0.000000 0.000000 
1.944942 95.637886 1.036469 0.000000 0.000000 0.000000 -8.875345 -44.929169 4.536150 -24.073809 13.053360 9.579561 47.447910 -0.690343 1.008420 -18.319964 -4.797758 -15.456291 -1.042157 0.209154 0.338851 0.000000 0.000000 0.000000 -9.486097 -43.868997 5.227493 -23.094111 0.234073 -35.250453 54.613154 -6.805824 -9.238458 -13.394488 -6.540940 23.897840 -3.001828 0.173700 0.627879 0.000000 0.000000 0.000000 -11.233234 -47.904713 2.094341 6.932838 10.680759 2.655141 3.627794 6.332062 -1.629973 1.619987 1.200755 1.368565 0.000000 0.000000 0.000000 4.107745 5.985234 -1.277254 2.867422 4.613710 2.023700 -1.798711 13.996867 -15.295222 0.000000 0.000000 0.000000 4.674550 6.102102 -0.880273 -0.259580 -1.635003 -2.755846 -2.620623 -2.448766 -6.778115 -27.502595 -15.191235 -69.946629 -7.940630 -86.279633 -6.076862 0.000000 0.000000 0.000000 6.086075 6.149404 -1.908556 5.768585 14.666778 3.527885 3.941104 8.754149 4.823534 -50.785868 26.894456 59.662522 179.594469 70.382729 -179.844085 0.000000 0.000000 0.000000 
2.339206 96.480316 0.643490 0.000000 0.000000 0.000000 -9.176888 -52.467218 5.585567 -20.435806 13.899006 8.130614 44.504741 0.390057 0.016179 -19.103518 -2.671073 -17.141210 -0.706189 0.086006 0.291883 0.000000 0.000000 0.000000 -8.873351 -50.616558 6.874296 -24.449917 4.756787 -34.820789 52.857970 -7.442848 -8.930330 -13.041497 -5.860241 21.696610 -0.982539 0.171705 1.085578 0.000000 0.000000 0.000000 -11.944549 -53.484814 2.772513 7.230064 9.994151 4.832701 5.444826 6.590198 -1.032308 1.906140 0.386043 1.497699 0.000000 0.000000 0.000000 6.208474 6.239577 -0.543431 2.646235 2.976446 1.536220 -7.522071 14.962520 -17.002402 0.000000 0.000000 0.000000 6.520312 6.582796 0.046254 -0.988206 -2.824910 -0.936053 -0.928657 0.204982 -5.850533 -20.683794 -16.801142 -73.018527 -5.454066 -81.058964 -3.352852 0.000000 0.000000 0.000000 7.798628 6.333767 -1.493177 5.384696 16.102318 5.924460 5.251176 8.267316 5.440493 -57.099125 36.776734 58.835277 176.244466 74.091105 -176.337138 0.000000 0.000000 0.000000 
2.831951 97.458298 0.033863 0.000000 0.000000 0.000000 -8.257376 -62.277938 6.612427 -17.107249 14.636214 7.551972 41.458333 2.490476 -1.088048 -19.998446 0.696408 -18.187137 -0.507576 -0.051074 0.227136 0.000000 0.000000 0.000000 -7.176505 -59.777180 8.463528 -27.011735 8.537248 -33.175830 49.869516 -7.515957 -8.495536 -12.057561 -3.229443 19.810165 1.117462 0.274280 1.247834 0.000000 0.000000 0.000000 -11.055144 -61.195906 3.774316 8.683034 8.375106 7.122707 7.797269 5.931436 -0.151914 1.350314 0.019712 1.563212 0.000000 0.000000 0.000000 8.853189 5.700967 0.476402 2.168253 1.296323 1.688183 -14.247370 15.510391 -17.233735 0.000000 0.000000 0.000000 9.121199 6.208070 1.226962 -1.498344 -4.181839 2.249441 0.513597 3.113511 -5.265762 -13.403665 -17.706227 -74.941928 -5.730175 -77.015690 -3.317925 0.000000 0.000000 0.000000 9.731446 5.659995 -0.588013 5.081991 17.195553 7.408854 6.184998 8.019743 5.309467 -68.490480 50.380175 66.033702 171.228294 78.222120 -171.236012 0.000000 0.000000 0.000000 
